<?xml version="1.0" encoding="UTF-8" standalone="no"?>
<!DOCTYPE svg PUBLIC "-//W3C//DTD SVG 1.1//EN" "http://www.w3.org/Graphics/SVG/1.1/DTD/svg11.dtd">
<svg width="100%" height="100%" viewBox="0 0 1024 1024" version="1.1" xmlns="http://www.w3.org/2000/svg" xmlns:xlink="http://www.w3.org/1999/xlink" xml:space="preserve" xmlns:serif="http://www.serif.com/" style="fill-rule:evenodd;clip-rule:evenodd;stroke-linejoin:round;stroke-miterlimit:2;">
    <g id="Second-Officer" serif:id="Second Officer">
        <path d="M780.898,0.001L780.043,0L239.69,0L238.864,0.001C98.294,0.392 0,98.248 0,243.957L0,784.31C0,876.835 42.18,951.14 112.452,991.306L113.08,991.663C149.764,1012.47 194.054,1024 243.957,1024L785.136,1024C925.706,1023.61 1024,925.752 1024,780.043L1024,239.69C1024,98.971 926.436,0.395 780.898,0.001ZM587.72,511.776C587.595,510.768 587.055,506.612 586.453,504.645C570.698,453.159 508.218,253.922 491.923,203.084C491.338,201.259 490.397,197.7 493.218,197.568L530.771,197.568C562.961,197.64 570.701,215.138 586.453,243.538C586.453,243.538 678.43,422.171 730.189,504.645C732.551,508.408 732.779,508.488 732.779,512C732.779,515.512 732.551,515.592 730.189,519.355C678.43,601.829 586.453,780.462 586.453,780.462C570.701,808.862 562.961,826.36 530.771,826.432L493.218,826.432C490.397,826.3 491.338,822.741 491.923,820.916C508.218,770.078 570.698,570.841 586.453,519.355C587.141,517.107 587.748,512 587.748,512L587.72,511.776ZM449.868,511.713C449.846,510.364 449.623,510.229 448.169,508.597C414.164,470.44 353.739,387.796 353.739,387.796C343.391,374.656 338.306,366.561 317.158,366.528L292.488,366.528C290.634,366.589 291.253,368.236 291.637,369.08C302.342,392.6 335.389,484.777 345.739,508.597C346.191,509.637 346.59,512 346.59,512L346.572,512.104C346.489,512.57 346.135,514.493 345.739,515.403C335.389,539.223 302.342,631.4 291.637,654.92C291.253,655.764 290.634,657.411 292.488,657.472L317.158,657.472C338.306,657.439 343.391,649.344 353.739,636.204C353.739,636.204 414.164,553.56 448.169,515.403C449.72,513.662 449.87,513.625 449.87,512L449.868,511.713Z"/>
    </g>
</svg>
